<?xml version="1.0" encoding="windows-1252"?>
<!-- Generator: Adobe Illustrator 19.0.0, SVG Export Plug-In . SVG Version: 6.00 Build 0)  -->
<svg version="1.1" id="Layer_1" xmlns="http://www.w3.org/2000/svg" xmlns:xlink="http://www.w3.org/1999/xlink" x="0px" y="0px" viewBox="0 0 504.123 504.123" style="enable-background:new 0 0 504.123 504.123;" xml:space="preserve">
<path style="fill:#93AFBC;" d="M454.445,363.095c0,65.953-83.834,141.028-187.242,141.028S79.96,429.048,79.96,363.095  c0-65.969,83.834-97.831,187.242-97.831S454.445,297.125,454.445,363.095z"/>
<path style="fill:#7395A0;" d="M267.195,265.263c103.416,0,187.242,31.862,187.242,97.831c0,65.953-83.834,141.028-187.242,141.028"/>
<path style="fill:#D7EBF4;" d="M467.599,238.245c0,126.921-89.726,224.752-200.413,224.752  c-110.679,0-200.381-97.831-200.381-224.752C66.798,53.697,156.508,0,267.179,0C377.873,0,467.599,53.697,467.599,238.245z"/>
<path style="fill:#BFD7E2;" d="M467.599,238.245c0,126.921-89.726,224.752-200.413,224.752  c-110.679,0-200.381-97.831-200.381-224.752C66.798,53.697,156.508,14.399,267.179,14.399  C377.873,14.399,467.599,53.697,467.599,238.245z"/>
<g>
	<path style="fill:#AAC7D1;" d="M67.365,214.969l76.509,76.509l153.135-74.004L131.554,51.988   C95.044,81.4,71.091,131.781,67.365,214.969z"/>
	<path style="fill:#AAC7D1;" d="M267.179,14.399c110.694,0,200.413,39.298,200.413,223.846   c0,126.921-89.726,224.752-200.413,224.752"/>
</g>
<path style="fill:#7DA4AD;" d="M317.166,4.206C301.183,1.308,284.445,0,267.179,0c-17.243,0-33.981,1.308-49.955,4.206v251.455  h99.942V4.206z"/>
<path style="fill:#CC092E;" d="M317.166,17.668c-15.982-2.308-32.721-3.269-49.987-3.269c-17.243,0-33.981,0.961-49.955,3.261  v238.001h99.942V17.668z"/>
<path style="fill:#7395A0;" d="M317.166,17.668c-15.982-2.308-32.721-3.269-49.987-3.269c-17.243,0-33.981,0.961-49.955,3.261  v238.001h99.942V17.668z"/>
<polygon style="fill:#5D8189;" points="317.166,215.875 317.166,178.034 292.456,156.94 243.847,158.436 "/>
<path style="fill:#93AFBC;" d="M438.785,239.159c0,90.277-76.832,180.145-171.599,180.145c-94.751,0-171.583-89.868-171.583-180.145  s76.832-42.386,171.583-42.386C361.954,196.773,438.785,148.882,438.785,239.159z"/>
<path style="fill:#4E6C75;" d="M317.166,193.087c-15.833,2.079-32.603,3.694-49.987,3.694s-34.139-1.615-49.955-3.694v62.574h99.942  V193.087z"/>
<path style="fill:#105A6B;" d="M438.785,249.06c0,90.277-76.832,180.153-171.599,180.153c-94.751,0-171.583-89.876-171.583-180.153  c0-90.27,76.832-42.386,171.583-42.386C361.954,206.675,438.785,158.791,438.785,249.06z"/>
<g>
	<path style="fill:#073349;" d="M267.179,234.583c89.663,0,163.233-42.795,170.906,29.05c0.433-4.844,0.693-9.704,0.693-14.572   c0-90.27-76.832-42.386-171.599-42.386c-94.751,0-171.583-47.884-171.583,42.386c0,4.86,0.276,9.72,0.709,14.572   C103.985,191.795,177.524,234.583,267.179,234.583z"/>
	<path style="fill:#073349;" d="M267.179,206.675c94.767,0,171.599-47.884,171.599,42.386c0,90.277-76.832,180.153-171.599,180.153"/>
</g>
<path style="fill:#BFD7E2;" d="M348.673,412.593c0,27.837-36.478,50.404-81.479,50.404s-81.479-22.567-81.479-50.404  c0-27.837,36.478-21.606,81.479-21.606S348.673,384.756,348.673,412.593z"/>
<path style="fill:#AAC7D1;" d="M267.195,390.987c45.001,0,81.479-6.231,81.479,21.606c0,27.837-36.478,50.404-81.479,50.404"/>
<path style="fill:#D7EBF4;" d="M101.937,185.525c-4.939,22.055-26.782,35.942-48.845,31.027l0,0  c-22.048-4.923-35.935-26.789-31.027-48.845L41.97,68.222c4.923-22.048,29.783-45.536,51.83-40.613l27.601,4.797  c22.063,4.923,4.261,46.687-0.646,68.742L101.937,185.525z"/>
<path style="fill:#BFD7E2;" d="M101.937,185.525c-4.939,22.055-26.782,35.942-48.845,31.027l0,0  c-22.048-4.923-35.935-26.789-31.027-48.845L41.97,68.222c4.923-22.048,26.782-35.935,48.829-31.019L118.399,42  c22.063,4.923,7.263,37.085,2.355,59.14L101.937,185.525z"/>
<path style="fill:#7DA4AD;" d="M108.23,164.817c-4.939,22.063-26.782,35.942-48.845,31.027l0,0  c-22.048-4.923-35.935-26.789-31.019-48.845l14.966-67.088c4.923-22.055,26.782-35.942,48.829-31.019l0,0  c22.063,4.923,39.802,9.492,34.895,31.547L108.23,164.817z"/>
<path style="fill:#7099A0;" d="M43.332,79.919C48.255,57.864,70.114,43.977,92.161,48.9l0,0  c22.063,4.923,39.802,9.492,34.895,31.547l-18.834,84.378"/>
<path style="fill:#61989E;" d="M104,95.122c0,10.437,0.985,28.365-9.444,28.365c-10.445,0-28.373-17.92-28.373-28.365  s8.46-18.905,18.905-18.905S104,84.685,104,95.122z"/>
<circle style="fill:#FFB600;" cx="85.088" cy="95.122" r="18.905"/>
<path style="fill:#FFA300;" d="M85.088,76.217c10.445,0,18.905,8.468,18.905,18.905s-8.46,18.905-18.905,18.905"/>
<path style="fill:#FFD400;" d="M69.783,98.721c0-10.437,8.46-18.905,18.905-18.905c4.309,0,8.231,1.489,11.398,3.907  c-3.458-4.529-8.862-7.507-14.998-7.507c-10.445,0-18.905,8.468-18.905,18.905c0,6.144,2.985,11.548,7.522,14.998  C71.272,106.937,69.783,103.022,69.783,98.721z"/>
<path style="fill:#61989E;" d="M88.247,151.387c0,10.437,0.985,28.365-9.444,28.365c-10.445,0-28.373-17.92-28.373-28.365  c0-10.445,8.46-18.897,18.905-18.897S88.247,140.95,88.247,151.387z"/>
<circle style="fill:#FFB600;" cx="69.334" cy="151.387" r="18.905"/>
<path style="fill:#FFA300;" d="M69.334,132.482c10.445,0,18.905,8.46,18.905,18.897c0,10.437-8.46,18.905-18.905,18.905"/>
<path style="fill:#FFD400;" d="M54.029,154.986c0-10.437,8.46-18.897,18.905-18.897c4.309,0,8.231,1.489,11.398,3.907  c-3.458-4.537-8.862-7.507-14.998-7.507c-10.445,0-18.905,8.46-18.905,18.897c0,6.144,2.985,11.548,7.522,14.998  C55.518,163.21,54.029,159.287,54.029,154.986z"/>
<polygon style="fill:#5D8189;" points="317.166,118.65 317.166,80.809 292.456,59.715 243.847,61.212 "/>
<path style="fill:#AAC7D1;" d="M293.748,57.612c0,2.481-2.017,4.498-4.49,4.498h-44.127c-2.473,0-4.49-2.016-4.49-4.498l0,0  c0-2.489,2.016-6.53,4.49-6.53h44.127C291.739,51.082,293.748,55.123,293.748,57.612L293.748,57.612z"/>
<path style="fill:#073349;" d="M293.748,57.612c0,2.481-2.017,4.498-4.49,4.498h-44.127c-2.473,0-4.49-2.016-4.49-4.498l0,0  c0-2.489,2.016-4.506,4.49-4.506h44.127C291.739,53.106,293.748,55.123,293.748,57.612L293.748,57.612z"/>
<polygon style="fill:#5D8189;" points="317.166,151.064 317.166,113.215 292.456,92.121 243.847,93.625 "/>
<path style="fill:#AAC7D1;" d="M293.748,90.025c0,2.481-2.017,4.498-4.49,4.498h-44.127c-2.473,0-4.49-2.016-4.49-4.498l0,0  c0-2.489,2.016-6.53,4.49-6.53h44.127C291.739,83.495,293.748,87.528,293.748,90.025L293.748,90.025z"/>
<path style="fill:#073349;" d="M293.748,90.025c0,2.481-2.017,4.498-4.49,4.498h-44.127c-2.473,0-4.49-2.016-4.49-4.498l0,0  c0-2.489,2.016-4.506,4.49-4.506h44.127C291.739,85.512,293.748,87.528,293.748,90.025L293.748,90.025z"/>
<polygon style="fill:#5D8189;" points="317.166,183.469 317.166,145.621 292.456,124.534 243.847,126.031 "/>
<path style="fill:#AAC7D1;" d="M293.748,122.431c0,2.481-2.017,4.498-4.49,4.498h-44.127c-2.473,0-4.49-2.016-4.49-4.498l0,0  c0-2.489,2.016-6.53,4.49-6.53h44.127C291.739,115.901,293.748,119.942,293.748,122.431L293.748,122.431z"/>
<path style="fill:#073349;" d="M293.748,122.431c0,2.481-2.017,4.498-4.49,4.498h-44.127c-2.473,0-4.49-2.016-4.49-4.498l0,0  c0-2.489,2.016-4.498,4.49-4.498h44.127C291.739,117.933,293.748,119.942,293.748,122.431L293.748,122.431z"/>
<path style="fill:#AAC7D1;" d="M293.748,154.837c0,2.481-2.017,4.498-4.49,4.498h-44.127c-2.473,0-4.49-2.017-4.49-4.498l0,0  c0-2.489,2.016-6.53,4.49-6.53h44.127C291.739,148.307,293.748,152.348,293.748,154.837L293.748,154.837z"/>
<path style="fill:#073349;" d="M293.748,154.837c0,2.481-2.017,4.498-4.49,4.498h-44.127c-2.473,0-4.49-2.017-4.49-4.498l0,0  c0-2.489,2.016-4.498,4.49-4.498h44.127C291.739,150.339,293.748,152.348,293.748,154.837L293.748,154.837z"/>
<path style="fill:#93AFBC;" d="M473.554,127.449c-13.383,14.47-34.997,40.574-49.475,27.175  c-14.462-13.391-16.321-61.196-2.922-75.658c13.383-14.47,35.966-15.36,50.428-1.961  C486.063,90.396,486.937,112.971,473.554,127.449z"/>
<circle style="fill:#AAC7D1;" cx="447.324" cy="103.203" r="35.698"/>
<path style="fill:#9EBDC6;" d="M471.585,76.997c14.478,13.391,15.352,35.966,1.969,50.444c-13.383,14.47-35.966,15.344-50.444,1.953  "/>
<path style="fill:#D7EBF4;" d="M421.519,88.56c13.383-14.47,35.966-15.344,50.444-1.953c5.955,5.514,9.476,12.611,10.784,20.023  c1.032-10.705-2.647-21.756-11.169-29.633c-14.462-13.399-37.463-14.943-50.861-0.488c-7.877,8.515-10.248,22.252-8.381,32.863  C413.044,101.872,415.997,94.523,421.519,88.56z"/>
<path style="fill:#93AFBC;" d="M388.798,153.072c-9.444,10.201-24.678,28.609-34.879,19.172  c-10.216-9.444-11.508-43.15-2.079-53.343c9.444-10.201,25.356-10.823,35.556-1.378  C397.613,126.952,398.227,142.872,388.798,153.072z"/>
<circle style="fill:#AAC7D1;" cx="370.288" cy="135.979" r="25.167"/>
<path style="fill:#9EBDC6;" d="M387.396,117.516c10.216,9.437,10.831,25.356,1.402,35.556c-9.444,10.201-25.372,10.823-35.572,1.378  "/>
<path style="fill:#D7EBF4;" d="M352.108,125.661c9.444-10.201,25.372-10.815,35.572-1.378c4.198,3.883,6.68,8.885,7.601,14.115  c0.725-7.546-1.859-15.336-7.877-20.882c-10.201-9.444-26.419-10.539-35.848-0.347c-5.553,6.01-7.231,15.691-5.923,23.158  C346.137,135.042,348.217,129.867,352.108,125.661z"/>
<g>
	<circle style="fill:#93AFBC;" cx="218.578" cy="410.947" r="4.057"/>
	<circle style="fill:#93AFBC;" cx="242.918" cy="410.947" r="4.049"/>
	<circle style="fill:#93AFBC;" cx="267.195" cy="410.947" r="4.049"/>
	<circle style="fill:#93AFBC;" cx="291.503" cy="410.947" r="4.049"/>
	<circle style="fill:#93AFBC;" cx="315.803" cy="410.947" r="4.057"/>
	<circle style="fill:#93AFBC;" cx="218.578" cy="425.354" r="4.057"/>
	<circle style="fill:#93AFBC;" cx="242.918" cy="425.354" r="4.049"/>
	<circle style="fill:#93AFBC;" cx="267.195" cy="425.354" r="4.049"/>
	<circle style="fill:#93AFBC;" cx="291.503" cy="425.354" r="4.049"/>
	<circle style="fill:#93AFBC;" cx="315.803" cy="425.354" r="4.057"/>
	<circle style="fill:#93AFBC;" cx="218.578" cy="439.769" r="4.057"/>
	<circle style="fill:#93AFBC;" cx="242.918" cy="439.769" r="4.049"/>
	<circle style="fill:#93AFBC;" cx="267.195" cy="439.769" r="4.049"/>
	<circle style="fill:#93AFBC;" cx="291.503" cy="439.769" r="4.049"/>
	<circle style="fill:#93AFBC;" cx="315.803" cy="439.769" r="4.057"/>
</g>
<g>
</g>
<g>
</g>
<g>
</g>
<g>
</g>
<g>
</g>
<g>
</g>
<g>
</g>
<g>
</g>
<g>
</g>
<g>
</g>
<g>
</g>
<g>
</g>
<g>
</g>
<g>
</g>
<g>
</g>
</svg>